<!DOCTYPE svg PUBLIC "-//W3C//DTD SVG 1.1//EN" "http://www.w3.org/Graphics/SVG/1.1/DTD/svg11.dtd">
<!-- Uploaded to: SVG Repo, www.svgrepo.com, Transformed by: SVG Repo Mixer Tools -->
<svg height="800px" width="800px" version="1.1" id="Capa_1" xmlns="http://www.w3.org/2000/svg" xmlns:xlink="http://www.w3.org/1999/xlink" viewBox="0 0 53.295 53.295" xml:space="preserve" fill="#ffffff">
<g id="SVGRepo_bgCarrier" stroke-width="0"/>
<g id="SVGRepo_tracerCarrier" stroke-linecap="round" stroke-linejoin="round"/>
<g id="SVGRepo_iconCarrier"> <g> <path style="fill:#ffffff;" d="M31.84,10.598c-1.229-0.304-2.193-1.416-2.193-2.533V3c0-1.654-1.346-3-3-3s-3,1.346-3,3v5.065 c0,1.117-0.964,2.229-2.193,2.533c-9.7,2.394-16.473,11.043-16.473,21.031c0,11.946,9.72,21.666,21.666,21.666 s21.666-9.72,21.666-21.666C48.313,21.641,41.541,12.992,31.84,10.598z M26.647,47.295c-8.639,0-15.666-7.027-15.666-15.666 c0-6.898,4.434-12.907,11.031-14.954c0.141-0.043,0.278-0.065,0.41-0.065c0.698,0,1.225,0.639,1.225,1.485v13.534 c0,1.654,1.346,3,3,3s3-1.346,3-3V18.095c0-1.006,0.752-1.688,1.635-1.42c6.598,2.047,11.031,8.057,11.031,14.954 C42.313,40.268,35.286,47.295,26.647,47.295z"/> </g> </g>
</svg>